{
  "accessors": [
    {
      "bufferView": 2,
      "componentType": 5126,
      "count": 3394,
      "max": [
        0.4751240015029907,
        0.1825830042362213,
        1.490738034248352
      ],
      "min": [
        -0.4751240015029907,
        -0.1435990035533905,
        0.05693800002336502
      ],
      "type": "VEC3"
    },
    {
      "bufferView": 2,
      "byteOffset": 40728,
      "componentType": 5126,
      "count": 3394,
      "max": [
        0.9996320605278015,
        0.9992705583572388,
        0.9997156262397766
      ],
      "min": [
        -0.999492347240448,
        -0.999931812286377,
        -0.993931770324707
      ],
      "type": "VEC3"
    },
    {
      "bufferView": 1,
      "componentType": 5126,
      "count": 3394,
      "max": [
        0.9955999851226807,
        -2.0567989349365234
      ],
      "min": [
        0.006200000178068876,
        -2.9964001178741455
      ],
      "type": "VEC2"
    },
    {
      "bufferView": 0,
      "componentType": 5125,
      "count": 13044,
      "type": "SCALAR"
    },
    {
      "bufferView": 2,
      "byteOffset": 81456,
      "componentType": 5126,
      "count": 5493,
      "max": [
        0.5455949902534485,
        0.12395299971103668,
        1.7665259838104248
      ],
      "min": [
        -0.5455949902534485,
        -0.12647999823093414,
        -0.016739999875426292
      ],
      "type": "VEC3"
    },
    {
      "bufferView": 2,
      "byteOffset": 147372,
      "componentType": 5126,
      "count": 5493,
      "max": [
        0.999985933303833,
        0.9992241859436035,
        0.9999884366989136
      ],
      "min": [
        -0.999985933303833,
        -0.999301552772522,
        -0.9999905824661255
      ],
      "type": "VEC3"
    },
    {
      "bufferView": 1,
      "byteOffset": 27152,
      "componentType": 5126,
      "count": 5493,
      "max": [
        0.9958999752998352,
        -2.005898952484131
      ],
      "min": [
        0.004999999888241291,
        -2.9981000423431396
      ],
      "type": "VEC2"
    },
    {
      "bufferView": 0,
      "byteOffset": 52176,
      "componentType": 5125,
      "count": 21492,
      "type": "SCALAR"
    },
    {
      "bufferView": 2,
      "byteOffset": 213288,
      "componentType": 5126,
      "count": 1957,
      "max": [
        0.42328599095344543,
        0.17709499597549438,
        1.4846489429473877
      ],
      "min": [
        -0.42328599095344543,
        -0.1415420025587082,
        0.7606170177459717
      ],
      "type": "VEC3"
    },
    {
      "bufferView": 2,
      "byteOffset": 236772,
      "componentType": 5126,
      "count": 1957,
      "max": [
        0.9998717308044434,
        0.9994381666183472,
        0.996387779712677
      ],
      "min": [
        -0.9998717308044434,
        -0.9999696016311646,
        -0.9913237690925598
      ],
      "type": "VEC3"
    },
    {
      "bufferView": 1,
      "byteOffset": 71096,
      "componentType": 5126,
      "count": 1957,
      "max": [
        0.9939000010490417,
        -2.006098985671997
      ],
      "min": [
        0.006300000008195639,
        -2.99399995803833
      ],
      "type": "VEC2"
    },
    {
      "bufferView": 0,
      "byteOffset": 138144,
      "componentType": 5125,
      "count": 8514,
      "type": "SCALAR"
    }
  ],
  "asset": {
    "extras": {
      "author": "Kyy.Mp4 (https://sketchfab.com/skyzoofficial122)",
      "license": "CC-BY-4.0 (http://creativecommons.org/licenses/by/4.0/)",
      "source": "https://sketchfab.com/3d-models/kagura-rainy-walk-0cfd475a4df048f1a5116748772fef9f",
      "title": "Kagura Rainy Walk"
    },
    "generator": "Sketchfab-14.61.0",
    "version": "2.0"
  },
  "bufferViews": [
    {
      "buffer": 0,
      "byteLength": 172200,
      "name": "floatBufferViews",
      "target": 34963
    },
    {
      "buffer": 0,
      "byteLength": 86752,
      "byteOffset": 172200,
      "byteStride": 8,
      "name": "floatBufferViews",
      "target": 34962
    },
    {
      "buffer": 0,
      "byteLength": 260256,
      "byteOffset": 258952,
      "byteStride": 12,
      "name": "floatBufferViews",
      "target": 34962
    }
  ],
  "buffers": [
    {
      "byteLength": 519208,
      "uri": "scene.bin"
    }
  ],
  "images": [
    {
      "uri": "textures/kagura_skin05_high_d1_baseColor.png"
    },
    {
      "uri": "textures/kagura_skin05_high_d2_baseColor.png"
    },
    {
      "uri": "textures/kagura_skin05_high_d3_baseColor.png"
    }
  ],
  "materials": [
    {
      "doubleSided": true,
      "emissiveTexture": {
        "index": 0
      },
      "name": "kagura_skin05_high_d1",
      "pbrMetallicRoughness": {
        "baseColorTexture": {
          "index": 0
        },
        "metallicFactor": 0.0
      }
    },
    {
      "doubleSided": true,
      "emissiveTexture": {
        "index": 1
      },
      "name": "kagura_skin05_high_d2",
      "pbrMetallicRoughness": {
        "baseColorTexture": {
          "index": 1
        },
        "metallicFactor": 0.0
      }
    },
    {
      "alphaMode": "BLEND",
      "doubleSided": true,
      "emissiveTexture": {
        "index": 2
      },
      "name": "kagura_skin05_high_d3",
      "pbrMetallicRoughness": {
        "baseColorFactor": [
          1.0,
          1.0,
          1.0,
          0.75
        ],
        "baseColorTexture": {
          "index": 2
        },
        "metallicFactor": 0.0
      }
    }
  ],
  "meshes": [
    {
      "name": "Object_0",
      "primitives": [
        {
          "attributes": {
            "NORMAL": 1,
            "POSITION": 0,
            "TEXCOORD_0": 2
          },
          "indices": 3,
          "material": 1,
          "mode": 4
        }
      ]
    },
    {
      "name": "Object_1",
      "primitives": [
        {
          "attributes": {
            "NORMAL": 5,
            "POSITION": 4,
            "TEXCOORD_0": 6
          },
          "indices": 7,
          "material": 0,
          "mode": 4
        }
      ]
    },
    {
      "name": "Object_2",
      "primitives": [
        {
          "attributes": {
            "NORMAL": 9,
            "POSITION": 8,
            "TEXCOORD_0": 10
          },
          "indices": 11,
          "material": 2,
          "mode": 4
        }
      ]
    }
  ],
  "nodes": [
    {
      "children": [
        1
      ],
      "matrix": [
        1.0,
        0.0,
        0.0,
        0.0,
        0.0,
        2.220446049250313e-16,
        -1.0,
        0.0,
        0.0,
        1.0,
        2.220446049250313e-16,
        0.0,
        0.0,
        0.0,
        0.0,
        1.0
      ],
      "name": "Sketchfab_model"
    },
    {
      "children": [
        2,
        3,
        4
      ],
      "name": "untitled.obj.cleaner.materialmerger.gles"
    },
    {
      "mesh": 0,
      "name": "Object_2"
    },
    {
      "mesh": 1,
      "name": "Object_3"
    },
    {
      "mesh": 2,
      "name": "Object_4"
    }
  ],
  "samplers": [
    {
      "magFilter": 9729,
      "minFilter": 9987,
      "wrapS": 10497,
      "wrapT": 10497
    }
  ],
  "scene": 0,
  "scenes": [
    {
      "name": "Sketchfab_Scene",
      "nodes": [
        0
      ]
    }
  ],
  "textures": [
    {
      "sampler": 0,
      "source": 0
    },
    {
      "sampler": 0,
      "source": 1
    },
    {
      "sampler": 0,
      "source": 2
    }
  ]
}
